<?xml version="1.0" encoding="iso-8859-1"?>
<!-- Generator: Adobe Illustrator 19.0.0, SVG Export Plug-In . SVG Version: 6.00 Build 0)  -->
<svg version="1.1" id="Layer_1" xmlns="http://www.w3.org/2000/svg" xmlns:xlink="http://www.w3.org/1999/xlink" x="0px" y="0px"
	 viewBox="0 0 512 512" style="enable-background:new 0 0 512 512;" xml:space="preserve">
<rect x="174.955" y="432.531" style="fill:#F7B239;" width="69.765" height="35.822"/>
<rect x="174.955" y="432.531" style="fill:#E09B2D;" width="30.003" height="35.822"/>
<g>
	<path style="fill:#F7B239;" d="M247.65,120.112c-9.085,5.145-28.026,16.869-48.956,35.762
		c-13.134,11.844-27.038,26.52-39.799,44.148c-23.701,32.762-38.895,69.355-45.16,108.78c-2.205,13.845-3.301,28.087-3.301,42.678
		c0,34.16,6.025,70.247,18.014,107.84l-8.52,19.525l-29.278-19.525c-16.218-55.475-20.411-108.262-12.435-157.266
		c7.35-45.221,24.978-87.14,52.378-124.577c17.833-24.364,37.425-43.57,54.908-58.041c19.749-16.363,36.834-26.665,45.727-31.581
		h0.012l29.658,0.616L247.65,120.112z"/>
	<path style="fill:#F7B239;" d="M406.977,191.407c0.108,1.337,0.157,2.675,0.157,4.036c0,28.508-23.122,51.619-51.631,51.619
		c-12.796,0-24.508-4.663-33.533-12.387l5.797-48.61L406.977,191.407z"/>
</g>
<g>
	<path style="fill:#F95428;" d="M457.102,159.971c-18.074-35.509-52.691-57.065-89.694-60.077l-34.714-68.223
		C318.174,3.15,283.28-8.2,254.759,6.319c-20.098,10.23-31.665,30.581-31.665,51.691c0,8.844,2.024,17.821,6.314,26.243l1.831,3.603
		l16.411,32.256l16.471,32.352c-19.327,31.689-22.267,72.368-4.193,107.877l2.386,4.699l59.656-30.364l85.007-43.269l52.523-26.737
		L457.102,159.971z"/>
	<polygon style="fill:#F95428;" points="128.447,459.321 174.957,459.321 244.722,459.321 282.653,459.321 282.653,512 52.501,512 
		52.501,459.321 90.649,459.321 	"/>
</g>
<polygon style="fill:#E54728;" points="67.964,459.321 77.433,459.321 91.638,459.321 99.36,459.321 99.36,512 52.501,512 
	52.501,459.321 60.268,459.321 "/>
<path style="fill:#E09B2D;" d="M247.65,120.112c-9.085,5.145-28.026,16.869-48.956,35.762L185.5,119.437
	c19.749-16.363,36.834-26.665,45.727-31.581h0.012L247.65,120.112z"/>
<path style="fill:#E54728;" d="M312.559,127.81l-15.31,7.792l-15.862-31.154l-16.411-32.256l-1.831-3.603
	c-4.29-8.422-6.314-17.399-6.314-26.243c0-15.709,6.414-30.989,17.973-41.999c-6.802,0.736-13.587,2.685-20.045,5.972
	c-20.098,10.23-31.665,30.581-31.665,51.691c0,8.844,2.024,17.821,6.314,26.243l1.831,3.603l16.411,32.256l16.471,32.352
	c-19.327,31.689-22.267,72.368-4.193,107.877l2.386,4.699l49.145-25.014l-1.413-2.785
	C291.778,201.351,294.078,160.401,312.559,127.81z"/>
<g>
</g>
<g>
</g>
<g>
</g>
<g>
</g>
<g>
</g>
<g>
</g>
<g>
</g>
<g>
</g>
<g>
</g>
<g>
</g>
<g>
</g>
<g>
</g>
<g>
</g>
<g>
</g>
<g>
</g>
</svg>
