<svg id="SvgjsSvg1021" width="288" height="288" xmlns="http://www.w3.org/2000/svg" version="1.1" xmlns:xlink="http://www.w3.org/1999/xlink" xmlns:svgjs="http://svgjs.com/svgjs"><defs id="SvgjsDefs1022"></defs><g id="SvgjsG1023"><svg xmlns="http://www.w3.org/2000/svg" width="288" height="288" enable-background="new 0 0 377.343 377.343" viewBox="0 0 377.343 377.343"><path d="M301.689,53.5H75.651c-10.876,0-19.725,8.842-19.725,19.713v230.909c0,10.868,8.843,19.711,19.725,19.711h226.039
		c10.873,0,19.722-8.843,19.722-19.711V73.218C321.406,62.348,312.562,53.5,301.689,53.5z M192.02,200.472h-9.185v35.491h-32.999
		V231.1h0.119v-30.628h-47.282l-20.859-16.626l68.141-107.188h32.88v94.411h9.185V200.472z M127.733,171.068l22.223-34.886v34.886
		H127.733z M338.677,0H38.662C19.094,0,3.226,15.869,3.226,35.439v306.464c0,19.573,15.869,35.439,35.437,35.439h300.02
		c19.568,0,35.436-15.866,35.436-35.439V35.434C374.117,15.869,358.25,0,338.677,0z M335.381,304.122
		c0,18.567-15.113,33.687-33.691,33.687H75.651c-18.576,0-33.695-15.114-33.695-33.687V73.218c0-18.569,15.114-33.688,33.695-33.688
		h226.039c18.572,0,33.691,15.114,33.691,33.688V304.122z" fill="#ffffff" class="color000 svgShape"></path></svg></g></svg>