<svg id="SvgjsSvg1026" width="288" height="288" xmlns="http://www.w3.org/2000/svg" version="1.1" xmlns:xlink="http://www.w3.org/1999/xlink" xmlns:svgjs="http://svgjs.com/svgjs"><defs id="SvgjsDefs1027"></defs><g id="SvgjsG1028"><svg xmlns="http://www.w3.org/2000/svg" enable-background="new 0 0 1000 1000" viewBox="0 0 1000 1000" width="288" height="288"><path d="M798.6,142.8H201.4c-28.7,0-52.1,23.4-52.1,52.1v610.1c0,28.7,23.4,52.1,52.1,52.1h597.3c28.7,0,52.1-23.4,52.1-52.1V194.9C850.7,166.2,827.4,142.8,798.6,142.8z M507.1,586.3c0,20.9-8.8,39-26.4,54.4c-17.6,15.4-37.8,23-60.8,23h-86c-23.2,0-43.4-7.6-60.8-22.9c-17.4-15.3-26.1-33.4-26.1-54.3v-34h86.9v34h86V463.8h-86c-23.2,0-43.4-7.7-60.8-23.1c-17.4-15.4-26.1-33.4-26.1-54.1V243.3h256.4V321H334.2v65.1h86c23,0,43.2,7.7,60.7,23c17.5,15.4,26.2,33.4,26.2,54.1L507.1,586.3L507.1,586.3L507.1,586.3z M896.4,1.5H103.6C51.9,1.5,10,43.4,10,95.1v809.8c0,51.7,41.9,93.6,93.6,93.6h792.7c51.7,0,93.6-41.9,93.6-93.6V95.1C990,43.4,948.1,1.5,896.4,1.5z M887.6,805.1c0,49.1-39.9,89-89,89H201.4c-49.1,0-89-39.9-89-89V194.9c0-49.1,39.9-89,89-89h597.3c49.1,0,89,39.9,89,89L887.6,805.1L887.6,805.1z" fill="#ffffff" class="color000 svgShape"></path></svg></g></svg>