<?xml version="1.0" encoding="utf-8"?>
<!-- Svg Vector Icons : http://www.onlinewebfonts.com/icon -->
<!DOCTYPE svg PUBLIC "-//W3C//DTD SVG 1.1//EN" "http://www.w3.org/Graphics/SVG/1.1/DTD/svg11.dtd">
<svg version="1.1" xmlns="http://www.w3.org/2000/svg" xmlns:xlink="http://www.w3.org/1999/xlink" x="0px" y="0px" viewBox="0 0 1000 1000" enable-background="new 0 0 1000 1000" xml:space="preserve">
<metadata> Svg Vector Icons : http://www.onlinewebfonts.com/icon </metadata>
<g><g><path d="M798.6,142.8H201.4c-28.7,0-52.1,23.4-52.1,52.1v610.1c0,28.7,23.4,52.1,52.1,52.1h597.3c28.7,0,52.1-23.4,52.1-52.1V194.9C850.7,166.2,827.4,142.8,798.6,142.8z M489.9,367.1c0,14.7-3.3,26.3-9.7,34.8c-6.5,8.6-14.4,18-23.5,28.4c9.2,10.2,17,19.6,23.5,28.1c6.5,8.6,9.7,20.2,9.7,34.8v69.9c0,20.9-8.8,39-26.3,54.4c-17.6,15.4-37.9,23-60.8,23h-89.3c-23.2,0-43.4-7.7-60.8-23c-17.4-15.4-26.1-33.4-26.1-54.1v-34.6h86.9v34h89.3v-93.8h-95.3v-78h95.3v-93.8h-89.3V329h-86.9v-31.6c0-20.7,8.8-38.8,26.4-54.4c17.6-15.5,37.9-23.3,61.1-23.3h88.7c23,0,43.2,7.8,60.8,23.3c17.6,15.5,26.3,33.6,26.3,54.1L489.9,367.1L489.9,367.1z M896.4,1.5H103.6C51.9,1.5,10,43.4,10,95.1v809.8c0,51.7,41.9,93.6,93.6,93.6h792.7c51.7,0,93.6-41.9,93.6-93.6V95.1C990,43.4,948.1,1.5,896.4,1.5z M887.6,805.1c0,49.1-39.9,89-89,89H201.4c-49.1,0-89-39.9-89-89V194.9c0-49.1,39.9-89,89-89h597.3c49.1,0,89,39.9,89,89L887.6,805.1L887.6,805.1z"/></g><g></g><g></g><g></g><g></g><g></g><g></g><g></g><g></g><g></g><g></g><g></g><g></g><g></g><g></g><g></g></g>
</svg>